<svg width="457" height="282" viewBox="0 0 457 282" fill="none" xmlns="http://www.w3.org/2000/svg">
<rect width="457" height="282" fill="#E6E7E8"/>
<line opacity="0.5" y1="34.5" x2="457" y2="34.5" stroke="white"/>
<line opacity="0.5" y1="70.5" x2="457" y2="70.5" stroke="white"/>
<line opacity="0.5" y1="105.5" x2="457" y2="105.5" stroke="white"/>
<line opacity="0.5" y1="140.5" x2="457" y2="140.5" stroke="white"/>
<line opacity="0.5" y1="175.5" x2="457" y2="175.5" stroke="white"/>
<line opacity="0.5" y1="210.5" x2="457" y2="210.5" stroke="white"/>
<line opacity="0.5" y1="246.5" x2="457" y2="246.5" stroke="white"/>
<line opacity="0.5" y1="281.5" x2="457" y2="281.5" stroke="white"/>
<line opacity="0.5" x1="211.5" y1="2.05272e-08" x2="211.5" y2="282" stroke="white"/>
<line opacity="0.5" x1="176.5" y1="2.05272e-08" x2="176.5" y2="282" stroke="white"/>
<line opacity="0.5" x1="422.5" y1="2.05272e-08" x2="422.5" y2="282" stroke="white"/>
<line opacity="0.5" x1="141.5" y1="2.05272e-08" x2="141.5" y2="282" stroke="white"/>
<line opacity="0.5" x1="387.5" y1="2.05272e-08" x2="387.5" y2="282" stroke="white"/>
<line opacity="0.5" x1="105.5" y1="2.05272e-08" x2="105.5" y2="282" stroke="white"/>
<line opacity="0.5" x1="352.5" y1="2.05272e-08" x2="352.5" y2="282" stroke="white"/>
<line opacity="0.5" x1="70.5" y1="2.05272e-08" x2="70.5" y2="282" stroke="white"/>
<line opacity="0.5" x1="316.5" y1="2.05272e-08" x2="316.5" y2="282" stroke="white"/>
<line opacity="0.5" x1="35.5" y1="2.05272e-08" x2="35.5" y2="282" stroke="white"/>
<line opacity="0.5" x1="281.5" y1="2.05272e-08" x2="281.5" y2="282" stroke="white"/>
<line opacity="0.5" x1="0.5" y1="2.18557e-08" x2="0.499988" y2="282" stroke="white"/>
<line opacity="0.5" x1="246.5" y1="2.05272e-08" x2="246.5" y2="282" stroke="white"/>
</svg>
