<svg width="16" height="16" viewBox="0 0 16 16" fill="none" xmlns="http://www.w3.org/2000/svg">
<rect width="16" height="16" fill="white"/>
<path d="M7.5 1V13.5H8.5V1H7.5ZM7 14H5.4V15H7V14ZM4.9 13.5V13H3.9V13.5H4.9ZM5 1H3V2H5V1ZM3 4H13V3H3V4ZM13 1H11V2H13V1ZM2.5 15V7.5H1.5V15H2.5ZM4 6H12V5H4V6ZM13.5 7.5V15H14.5V7.5H13.5ZM2.5 7.5C2.5 6.67157 3.17157 6 4 6V5C2.61929 5 1.5 6.11929 1.5 7.5H2.5ZM14.5 2.5C14.5 1.67157 13.8284 1 13 1V2C13.2761 2 13.5 2.22386 13.5 2.5H14.5ZM3 1C2.17157 1 1.5 1.67157 1.5 2.5H2.5C2.5 2.22386 2.72386 2 3 2V1ZM13 4C13.8284 4 14.5 3.32843 14.5 2.5H13.5C13.5 2.77614 13.2761 3 13 3V4ZM5.4 14C5.12386 14 4.9 13.7761 4.9 13.5H3.9C3.9 14.3284 4.57157 15 5.4 15V14ZM1.5 2.5C1.5 3.32843 2.17157 4 3 4V3C2.72386 3 2.5 2.77614 2.5 2.5H1.5ZM12 6C12.8284 6 13.5 6.67157 13.5 7.5H14.5C14.5 6.11929 13.3807 5 12 5V6ZM7.5 13.5C7.5 13.7761 7.27614 14 7 14V15C7.82843 15 8.5 14.3284 8.5 13.5H7.5Z" fill="black"/>
<path d="M4 11.5H11C11.5523 11.5 12 11.9477 12 12.5V13.5C12 14.0523 11.5523 14.5 11 14.5H10M5 9.5H11C11.5523 9.5 12 9.05228 12 8.5V8.5C12 7.94772 11.5523 7.5 11 7.5H5C4.44772 7.5 4 7.94772 4 8.5V8.5C4 9.05228 4.44772 9.5 5 9.5Z" stroke="black"/>
</svg>
