<?xml version="1.0" encoding="iso-8859-1"?>
<!-- Generator: Adobe Illustrator 19.1.0, SVG Export Plug-In . SVG Version: 6.00 Build 0)  -->
<svg version="1.1" id="Layer_1" xmlns="http://www.w3.org/2000/svg" xmlns:xlink="http://www.w3.org/1999/xlink" x="0px" y="0px"
	 viewBox="0 0 105.5 92" style="enable-background:new 0 0 105.5 92;" xml:space="preserve">
<g>
	<path d="M36.75,2C55.911,2,71.5,17.589,71.5,36.75S55.911,71.5,36.75,71.5S2,55.911,2,36.75S17.589,2,36.75,2 M36.75,0
		C16.454,0,0,16.454,0,36.75S16.454,73.5,36.75,73.5S73.5,57.046,73.5,36.75S57.046,0,36.75,0L36.75,0z"/>
</g>
<g>
	<path d="M68.75,20.5c19.161,0,34.75,15.589,34.75,34.75S87.911,90,68.75,90S34,74.411,34,55.25S49.589,20.5,68.75,20.5 M68.75,18.5
		C48.454,18.5,32,34.954,32,55.25S48.454,92,68.75,92s36.75-16.454,36.75-36.75S89.046,18.5,68.75,18.5L68.75,18.5z"/>
</g>
</svg>
