<?xml version="1.0" encoding="iso-8859-1"?>
<!-- Generator: Adobe Illustrator 19.1.0, SVG Export Plug-In . SVG Version: 6.00 Build 0)  -->
<svg version="1.1" id="Layer_1" xmlns="http://www.w3.org/2000/svg" xmlns:xlink="http://www.w3.org/1999/xlink" x="0px" y="0px"
	 viewBox="0 0 26 19" style="enable-background:new 0 0 26 19;" xml:space="preserve">
<g>
	<path d="M7.59,1.2c3.523,0,6.39,2.866,6.39,6.39s-2.866,6.39-6.39,6.39S1.2,11.113,1.2,7.59S4.066,1.2,7.59,1.2 M7.59,0
		C3.398,0,0,3.398,0,7.59c0,4.192,3.398,7.59,7.59,7.59c4.192,0,7.59-3.398,7.59-7.59C15.179,3.398,11.781,0,7.59,0L7.59,0z"/>
</g>
<g>
	<path d="M14.198,5.021c3.523,0,6.39,2.866,6.39,6.39s-2.866,6.39-6.39,6.39s-6.39-2.866-6.39-6.39S10.675,5.021,14.198,5.021
		 M14.198,3.821c-4.192,0-7.59,3.398-7.59,7.59c0,4.192,3.398,7.59,7.59,7.59c4.192,0,7.59-3.398,7.59-7.59
		C21.788,7.219,18.39,3.821,14.198,3.821L14.198,3.821z"/>
</g>
</svg>
